<?xml version="1.0" encoding="utf-8"?>
<!-- Generator: Adobe Illustrator 21.0.0, SVG Export Plug-In . SVG Version: 6.00 Build 0)  -->
<svg version="1.1" id="Слой_1" xmlns="http://www.w3.org/2000/svg" xmlns:xlink="http://www.w3.org/1999/xlink" x="0px" y="0px"
	 viewBox="0 0 223.9 217.9" style="enable-background:new 0 0 223.9 217.9;" xml:space="preserve">
<style type="text/css">
	.st0{fill:#FFFFFF;}
</style>
<title>github</title>
<g id="icons_Q2">
	<path class="st0" d="M113,0C51.5-0.9,0.9,48.3,0,109.8c-0.7,49.2,31,93.1,78,107.9c5.2,1,9.3-4.6,9.3-9.3v-15
		c-31,6.7-40.8-15-40.8-15c-2-6.5-6-12.3-11.4-16.5c-10.3-7.2,0.5-6.7,0.5-6.7c7,0.6,13.3,4.4,17,10.3c8.8,15,28.4,13.4,34.6,10.8
		c-0.5-5.1,0.4-10.3,2.6-15c-35.1-6.2-54.2-26.8-54.2-54.7c-0.4-14.5,5-28.6,15-39.2c-5.7-10.4-5.1-23.2,1.5-33
		c12.6,0.2,24.5,5.7,33,15c9-3.1,18.4-4.5,27.9-4.1c9.4-0.3,18.8,0.9,27.9,3.6c8.6-9.1,20.5-14.3,33-14.4c6.4,9.9,7.2,22.4,2.1,33
		c9.8,10.7,15,24.8,14.4,39.2c0,27.9-19.1,48.5-54.2,54.7c2.2,4.7,3.1,9.8,2.6,15v32c0,5.1,4.1,9.3,9.3,9.3c0.2,0,0.4,0,0.5,0
		c58.4-20.3,89.3-84.1,69.1-142.5C202.2,30.6,160.3,0.5,113,0z"/>
</g>
</svg>
