<?xml version="1.0" encoding="utf-8"?>
<!-- Generator: Adobe Illustrator 21.0.0, SVG Export Plug-In . SVG Version: 6.00 Build 0)  -->
<svg version="1.1" id="Слой_1" xmlns="http://www.w3.org/2000/svg" xmlns:xlink="http://www.w3.org/1999/xlink" x="0px" y="0px"
	 viewBox="0 0 448 448" style="enable-background:new 0 0 448 448;" xml:space="preserve">
<style type="text/css">
	.st0{fill:#FFFFFF;}
</style>
<title>Logo Linkedin</title>
<path class="st0" d="M412.2,0H38.3C17.8,0,0,14.7,0,34.9v374.7C0,429.9,17.8,448,38.3,448h373.8c20.5,0,35.9-18.2,35.9-38.4V34.9
	C448.1,14.7,432.6,0,412.2,0z M138.9,373.4H74.7V173.9h64.2V373.4z M109,143.5h-0.5c-20.5,0-33.8-15.3-33.8-34.4
	c0-19.5,13.7-34.4,34.7-34.4s33.9,14.8,34.3,34.4C143.7,128.2,130.4,143.5,109,143.5L109,143.5z M373.4,373.4h-64.2V264.3
	c0-26.1-9.3-44-32.6-44c-17.7,0-28.2,12-32.9,23.7c-1.8,4.2-2.2,9.9-2.2,15.8v113.7h-64.2V173.9h64.2v27.8
	c9.3-13.3,23.9-32.4,57.9-32.4c42.1,0,74,27.8,74,87.6L373.4,373.4z"/>
</svg>
